<svg width="512" height="512" viewBox="0 0 512 512" xmlns="http://www.w3.org/2000/svg">
  <rect width="512" height="512" fill="#F8F9F8"/>
  <circle cx="256" cy="256" r="220" fill="none" stroke="#A5A7A9" stroke-width="6"/>

  <!-- Cloud -->
  <path d="M 320 160 C 320 145 340 145 350 155 C 360 145 380 145 385 160 C 400 160 400 175 385 180 L 340 180 C 340 170 320 170 320 180 L 300 180 C 280 180 280 160 300 155 Z" fill="#A5A7A9" opacity="0.9"/>

  <!-- Lotus -->
  <g fill="#A6C9B2">
    <path d="M 256 130 C 262 145 262 155 256 160 C 250 155 250 145 256 130 Z"/>
    <path d="M 256 165 C 275 205 285 235 256 265 C 227 235 237 205 256 165 Z"/>
    <path d="M 256 265 C 215 265 185 230 175 200 C 190 235 225 255 256 265 Z"/>
    <path d="M 256 265 C 195 280 135 255 115 225 C 150 265 200 280 256 265 Z"/>
    <path d="M 256 265 C 297 265 327 230 337 200 C 322 235 287 255 256 265 Z"/>
    <path d="M 256 265 C 317 280 377 255 397 225 C 362 265 312 280 256 265 Z"/>
    <path d="M 160 285 C 220 305 240 280 290 295 C 320 305 320 320 290 320 C 240 305 220 330 160 310 Z"/>
  </g>

  <text x="256" y="390" font-family="STKaiti, KaiTi, serif" font-size="64" fill="#7B7E81" text-anchor="middle" letter-spacing="8">禅心助手</text>
</svg>